<?xml version="1.0" standalone="no"?>
<!DOCTYPE svg PUBLIC "-//W3C//DTD SVG 20010904//EN"
 "http://www.w3.org/TR/2001/REC-SVG-20010904/DTD/svg10.dtd">
<svg version="1.0" xmlns="http://www.w3.org/2000/svg"
 width="151" height="44" viewBox="0 0 151 44">

<g transform="translate(0.000000,3897.000000) scale(0.100000,-0.100000)"
fill="#000000" stroke="none">
<path d="M38125 38960 c-2833 -107 -5485 -775 -7970 -2005 -3364 -1666 -6176
-4263 -8107 -7489 -1325 -2212 -2205 -4701 -2562 -7253 -37 -258 -44 -233 64
-233 50 0 90 4 90 9 0 4 16 118 35 252 260 1805 765 3531 1523 5209 118 261
453 937 587 1185 1013 1867 2308 3541 3850 4975 1767 1642 3780 2919 6010
3810 2914 1165 6124 1597 9285 1249 3531 -387 6895 -1752 9700 -3933 411 -320
886 -721 1215 -1025 914 -845 1694 -1708 2409 -2661 2513 -3353 3856 -7385
3856 -11580 0 -3023 -691 -5952 -2037 -8640 -2219 -4432 -6066 -7854 -10718
-9534 -3290 -1189 -6883 -1458 -10335 -775 -5216 1032 -9797 4203 -12627 8739
-1220 1955 -2078 4112 -2534 6370 -72 358 -160 876 -209 1243 l-12 87 -89 0
-89 0 0 -30 c0 -34 59 -447 96 -665 459 -2756 1487 -5344 3043 -7660 1422
-2118 3267 -3956 5391 -5372 2823 -1881 6056 -2982 9450 -3218 315 -22 2389
-22 2706 0 1830 127 3598 500 5304 1120 1157 420 2264 946 3340 1588 2139
1275 4053 2993 5570 5000 1781 2357 2994 5065 3564 7955 202 1024 316 2010
357 3092 22 582 3 1593 -41 2160 -127 1645 -439 3199 -946 4717 -1014 3038
-2773 5791 -5112 7999 -2827 2671 -6358 4426 -10172 5059 -762 126 -1484 203
-2315 245 -281 15 -1282 21 -1570 10z"/>
<path d="M25370 21494 c-14 -2 -65 -9 -115 -15 -259 -31 -551 -131 -770 -264
-190 -115 -408 -303 -547 -472 -237 -289 -378 -625 -429 -1018 -17 -135 -14
-449 5 -580 89 -591 400 -1085 884 -1402 l97 -63 -1363 0 -1362 0 0 664 0 664
735 1196 c404 658 735 1198 735 1201 0 3 -163 5 -363 5 l-362 0 -544 -905
-544 -905 -538 896 c-295 493 -541 900 -546 905 -5 5 -168 8 -371 7 l-362 -3
740 -1204 740 -1205 0 -658 0 -658 -870 0 -870 0 0 195 0 195 -1095 0 -1095 0
0 530 0 530 950 0 950 0 0 295 0 295 -947 2 -948 3 0 525 0 525 1058 3 1057 2
0 315 0 315 -1392 -2 -1393 -3 -3 -1862 -2 -1863 -638 0 -637 1 35 27 c19 15
70 61 113 102 129 123 206 256 255 440 22 84 25 115 26 275 1 156 -2 192 -22
270 -48 192 -163 370 -315 490 -97 78 -250 156 -364 187 -46 13 -83 26 -83 29
0 3 26 16 57 29 77 32 222 130 285 193 99 99 171 237 205 394 27 120 24 361
-5 477 -26 103 -90 244 -152 337 -60 89 -193 219 -269 263 -146 85 -322 144
-531 180 -171 29 -455 37 -1220 34 l-745 -3 -3 -1862 -2 -1863 -275 0 -275 0
0 -120 0 -120 8630 0 8630 0 2 1443 3 1443 1120 -1443 1120 -1443 3999 3 3999
2 196 445 196 445 995 2 995 3 196 -448 197 -447 971 -3 971 -2 0 665 0 665
442 -2 441 -3 471 -662 470 -663 2258 0 2258 0 0 120 0 120 -690 0 -690 0 0
1555 0 1555 603 2 602 3 0 305 0 305 -1537 3 -1538 2 0 -310 0 -310 600 0 600
0 0 -1555 0 -1555 -893 0 -893 0 -395 547 c-217 301 -411 570 -431 599 l-37
52 77 27 c347 123 588 358 699 680 114 329 104 813 -21 1121 -164 403 -508
605 -1156 680 -121 14 -289 17 -1027 21 l-883 5 0 -1866 0 -1866 -331 2 -331
3 -821 1863 -820 1862 -356 0 -356 0 -821 -1862 -820 -1863 -1485 -2 -1484 -3
85 48 c189 107 296 188 431 329 342 357 507 890 469 1519 -22 361 -94 633
-235 889 -279 505 -779 811 -1489 910 -188 26 -468 35 -1168 35 l-678 0 0
-1865 0 -1865 -550 0 -550 0 -2 1863 -3 1862 -332 3 -333 2 0 -1480 c0 -911
-4 -1479 -9 -1475 -5 3 -526 669 -1157 1480 l-1147 1475 -333 0 -334 0 0
-1865 0 -1865 -920 0 c-506 0 -920 2 -920 4 0 2 31 22 68 44 429 255 778 763
881 1282 32 163 41 260 41 447 0 362 -70 661 -222 953 -255 490 -729 872
-1260 1015 -187 51 -316 67 -563 70 -126 2 -241 2 -255 -1z m501 -633 c278
-56 502 -182 715 -403 191 -198 316 -432 368 -689 81 -399 7 -813 -204 -1127
-215 -320 -513 -526 -873 -604 -137 -29 -426 -32 -562 -5 -284 58 -502 175
-710 383 -211 212 -333 437 -396 734 -19 88 -22 136 -22 300 0 210 15 317 69
480 128 384 447 722 826 871 71 28 232 68 320 79 108 13 357 3 469 -19z
m19479 -81 c126 -18 267 -56 340 -92 122 -59 207 -174 247 -334 27 -105 24
-391 -5 -495 -59 -217 -177 -344 -377 -408 -191 -61 -227 -64 -842 -69 l-563
-3 0 711 0 712 558 -5 c357 -3 588 -9 642 -17z m-31189 0 c394 -37 569 -197
569 -520 0 -285 -174 -446 -530 -490 -47 -5 -295 -10 -567 -10 l-483 0 0 508
c0 280 3 512 7 515 10 11 887 8 1004 -3z m20819 -14 c687 -98 1061 -425 1165
-1021 9 -49 18 -157 22 -240 14 -362 -55 -659 -208 -895 -53 -81 -204 -233
-286 -288 -192 -129 -433 -211 -715 -241 -54 -6 -302 -11 -558 -11 l-460 0 0
1361 0 1361 463 -5 c349 -4 490 -9 577 -21z m6203 -993 l356 -808 -360 -3
c-197 -1 -520 -1 -718 0 l-358 3 356 808 c195 444 358 807 362 807 3 0 166
-363 362 -807z m-26748 -656 c179 -34 303 -86 388 -165 101 -95 137 -186 137
-349 -1 -299 -107 -435 -398 -509 -138 -35 -370 -45 -937 -42 l-470 3 -3 543
-2 544 602 -5 c481 -4 619 -8 683 -20z"/>
</g>
</svg>
